# xmcd
#
# Track frame offsets:
#	150
#	19387
#	37601
#	54942
#	65699
#	87530
#	104182
#	123566
#	141637
#	160867
#	178926
#	196231
#	206974
#	228790
#	245413
#	264682
#
# Disc length: 3770 seconds
#
# Revision: 4
# Processed by: cddbd v1.5.2PL0 Copyright (c) Steve Scherf et al.
# Submitted via: audiograbber 1.83.01
#
DISCID=f20eb810
DTITLE=Male Country HIts Vol 1 -  FSK116
DYEAR=2004
DGENRE=Karaoke
TTITLE0=Keith, Toby - Weed With Willie
TTITLE1=Diamond Rio - I Believe
TTITLE2=Chesney, Kenny - No Shoes, No Shirt, No Problem
TTITLE3=Byrd, Tracy - Drinkin' Bone
TTITLE4=Allan, Gary - Songs About Rain
TTITLE5=Bentley, Dierks - My Last Name
TTITLE6=Chesney, Kenny - Big Star
TTITLE7=Otto, James - Days Of Our Lives
TTITLE8=Keith, Toby - Weed With Willie w/ Vocals
TTITLE9=Diamond Rio - I Believe w/ Vocals
TTITLE10=Chesney, Kenny - No Shoes, No Shirt, No Problem w/ Vocals
TTITLE11=Byrd, Tracy - Drinkin' Bone w/ Vocals
TTITLE12=Allan, Gary - Songs About Rain w/ Vocals
TTITLE13=Bentley, Dierks - My Last Name w/ Vocals
TTITLE14=Chesney, Kenny - Big Star w/ Vocals
TTITLE15=Otto, James - Days Of Our Lives w/ Vocals
EXTD=
EXTT0=
EXTT1=
EXTT2=
EXTT3=
EXTT4=
EXTT5=
EXTT6=
EXTT7=
EXTT8=
EXTT9=
EXTT10=
EXTT11=
EXTT12=
EXTT13=
EXTT14=
EXTT15=
PLAYORDER=
